<?xml version="1.0" standalone="no"?>
<!DOCTYPE svg PUBLIC "-//W3C//DTD SVG 20010904//EN"
 "http://www.w3.org/TR/2001/REC-SVG-20010904/DTD/svg10.dtd">
<svg version="1.0" xmlns="http://www.w3.org/2000/svg"
 width="700.000000pt" height="700.000000pt" viewBox="0 0 700.000000 700.000000"
 preserveAspectRatio="xMidYMid meet">
<metadata>
Created by potrace 1.14, written by Peter Selinger 2001-2017
</metadata>
<g transform="translate(0.000000,700.000000) scale(0.100000,-0.100000)"
fill="#000000" stroke="none">
<path d="M3235 6679 c-1360 -115 -2502 -1087 -2829 -2409 -239 -965 -18 -1982
599 -2755 761 -954 1997 -1392 3185 -1128 243 53 460 128 687 238 1443 695
2147 2333 1657 3856 -334 1042 -1199 1850 -2264 2113 -333 83 -702 113 -1035
85z m922 -623 c73 -33 144 -103 176 -174 22 -47 22 -51 25 -784 l2 -738 738
-2 c733 -3 737 -3 784 -25 71 -32 141 -103 174 -176 l29 -62 0 -595 0 -595
-27 -57 c-35 -76 -98 -142 -167 -175 l-56 -28 -737 -3 -738 -2 -2 -738 -3
-737 -28 -56 c-33 -69 -99 -132 -175 -167 l-57 -27 -595 0 -595 0 -62 29 c-73
33 -144 103 -176 174 -22 47 -22 51 -25 784 l-2 738 -738 2 c-733 3 -737 3
-784 25 -71 32 -141 103 -174 176 l-29 62 0 595 0 595 29 62 c33 73 103 144
174 176 47 22 51 22 784 25 l738 2 2 738 c3 731 3 737 25 784 44 96 146 177
247 198 22 4 298 8 611 7 l570 -2 62 -29z"/>
</g>
</svg>
