<?xml version="1.0" encoding="utf-8"?>
<!-- Generator: Adobe Illustrator 16.0.0, SVG Export Plug-In . SVG Version: 6.00 Build 0)  -->
<!DOCTYPE svg PUBLIC "-//W3C//DTD SVG 1.1//EN" "http://www.w3.org/Graphics/SVG/1.1/DTD/svg11.dtd">
<svg version="1.1" id="Layer_1" xmlns="http://www.w3.org/2000/svg" xmlns:xlink="http://www.w3.org/1999/xlink" x="0px" y="0px"
	 width="1024px" height="1024px" viewBox="0 0 1024 1024" enable-background="new 0 0 1024 1024" xml:space="preserve">
<path fill="#FFFFFF" d="M512,45.421C254.315,45.421,45.421,254.315,45.421,512c0,257.685,208.894,466.579,466.579,466.579
	c257.685,0,466.577-208.896,466.577-466.579C978.577,254.315,769.685,45.421,512,45.421z M840.366,638.123H638.121v202.245
	c0,27.5-22.5,50-50,50H435.877c-27.5,0-50-22.5-50-50V638.123H183.632c-27.5,0-50-22.5-50-50V435.877c0-27.5,22.5-50,50-50h202.246
	V183.632c0-27.5,22.5-50,50-50h152.244c27.5,0,50,22.5,50,50v202.246h202.245c27.5,0,50,22.5,50,50v152.246
	C890.366,615.623,867.866,638.123,840.366,638.123z"/>
</svg>
